# Blender v2.79 (sub 0) OBJ File: 'Cubes.blend'
# www.blender.org
mtllib SkyBoxN.mtl
o Cube_Cube.001
v -1.000000 1.000000 1.000000
v -1.000000 1.000000 -1.000000
v -1.000000 -1.000000 1.000000
v -1.000000 -1.000000 -1.000000
v 1.000000 1.000000 1.000000
v 1.000000 1.000000 -1.000000
v 1.000000 -1.000000 1.000000
v 1.000000 -1.000000 -1.000000
vt 0.666206 0.998678
vt 0.666206 0.749206
vt 0.334152 0.749206
vt 0.334152 0.998678
vt 0.666206 0.499735
vt 0.334152 0.499735
vt 0.666206 0.250263
vt 0.334152 0.250263
vt 0.666206 0.000791
vt 0.334152 0.000791
vt 0.998259 0.499735
vt 0.998259 0.250263
vt 0.002099 0.250263
vt 0.002099 0.499735
vn 0.5773 -0.5773 -0.5773
vn 0.5773 0.5773 -0.5773
vn 0.5773 0.5773 0.5773
vn 0.5773 -0.5773 0.5773
vn -0.5773 0.5773 -0.5773
vn -0.5773 0.5773 0.5773
vn -0.5773 -0.5773 -0.5773
vn -0.5773 -0.5773 0.5773
usemtl None
s 1
f 1/1/1 3/2/2 4/3/3 2/4/4
f 3/2/2 7/5/5 8/6/6 4/3/3
f 7/5/5 5/7/7 6/8/8 8/6/6
f 5/7/7 1/9/1 2/10/4 6/8/8
f 3/11/2 1/12/1 5/7/7 7/5/5
f 8/6/6 6/8/8 2/13/4 4/14/3
